<svg xmlns="http://www.w3.org/2000/svg" width="2143.989" height="1511.497" viewBox="0 0 2143.989 1511.497">
  <defs>
    <style>
      .cls-1 {
        fill: #e4f5ed;
      }

      .cls-2 {
        fill: #fff;
      }

      .cls-3, .cls-9 {
        fill: #273339;
      }

      .cls-3 {
        opacity: 0.47;
      }

      .cls-4 {
        fill: #dfe1e5;
      }

      .cls-5 {
        fill: #4ad295;
      }

      .cls-6 {
        fill: #a4e8ca;
      }

      .cls-7 {
        fill: #3ba877;
      }

      .cls-8 {
        fill: #f3f4f9;
      }

      .cls-10 {
        fill: #515c61;
      }

      .cls-11 {
        fill: #163a52;
      }

      .cls-12 {
        fill: #4bd295;
      }

      .cls-13 {
        fill: #ff9a83;
      }

      .cls-14 {
        fill: #263238;
      }

      .cls-15 {
        fill: #c0c3ce;
      }

      .cls-16 {
        fill: #c8f1df;
      }

      .cls-17 {
        fill: #acc6ba;
      }

      .cls-18 {
        fill: none;
        stroke: #263238;
        stroke-miterlimit: 10;
        stroke-width: 0.25px;
      }
    </style>
  </defs>
  <g id="Group_73" data-name="Group 73" transform="translate(174.11 -303.632)">
    <path id="Path_207" data-name="Path 207" class="cls-1" d="M511.865,1532.207c516.268,184.906,1027.772-133.212,1316.379-478.571C2156.955,660.27,2091.37,273.83,1448.818,398.257,1362.363,415,1280.64,451.75,1192.4,461.224c-81.866,8.795-165.776-5.884-241.479-32.816-166.011-59.077-289.8-190.622-480.128-192.651-132.13-1.411-256.207,63.267-342.673,149.514C-8.358,521.377-89.325,696.456-68.792,876.589c31.857,279.375,259.917,530.362,552.785,645.164Q497.837,1527.179,511.865,1532.207Z" transform="translate(-102.154 228.522)"/>
    <path id="Path_208" data-name="Path 208" class="cls-2" d="M1082.188,1539.1q-24.958,0-50.214-2.517h0c-6.039-.606-12.12-1.312-18.076-2.11-95.179-12.684-187.459-50.131-266.871-108.3-81.473-59.676-143.549-137.211-179.509-224.224-23.217-56.179-33.318-117.084-30.012-181.021,3.123-60.432,17.968-120.805,44.126-179.451,36.035-80.8,96.774-138.723,166.625-158.917,69.577-20.111,135.591-.523,199.437,18.416,37,10.982,75.259,22.337,114.251,26.133,53.23,5.2,103.153-1.719,144.33-19.986,27.961-12.4,53.313-30.768,77.826-48.52,18.017-13.042,36.641-26.532,56.187-37.58,72.086-40.753,136.871-63.663,192.551-68.107,51.784-4.137,94.747,7.667,127.708,35.071,80.584,67.011,91.906,221.367,29.539,402.837-53.105,154.514-138.366,293-240.09,389.969-58.388,55.655-121.686,97.3-188.14,123.762A482.594,482.594,0,0,1,1082.188,1539.1Zm-50.048-4.22c334.837,33.426,562.8-272.479,656.317-544.591,62.135-180.788,51.012-334.43-29.016-400.967-32.6-27.113-75.143-38.784-126.479-34.689-55.423,4.427-119.975,27.263-191.845,67.891-19.463,11-38.045,24.463-56.021,37.48-24.588,17.8-50.015,36.217-78.142,48.694-41.442,18.391-91.632,25.352-145.186,20.119-39.15-3.821-77.494-15.193-114.567-26.2-66.537-19.754-129.386-38.4-198.474-18.416-69.37,20.053-129.71,77.635-165.537,157.97-54.4,121.96-59.41,249.5-14.1,359.126,72.319,174.974,247,305.082,445.027,331.473,5.939.8,11.995,1.5,18.017,2.11Z" transform="translate(239.864 176.723)"/>
    <path id="Path_209" data-name="Path 209" class="cls-3" d="M1086.792,450.264a135.3,135.3,0,0,1-18.1-1.213c-1.42-.191-2.849-.407-4.261-.648h0C985.557,435.129,952.422,350.982,948,282.958c-2.949-45.5,9.436-80.252,32.322-90.677,13.789-6.288,37.48-6.62,71.937,27.52a143.931,143.931,0,0,1,10.5,12.086c4.419,5.482,8.98,11.156,14.445,15.608,8.024,6.537,18.7,11.1,30.86,13.175,8.946,1.528,18.258,1.321,27.246,1.121,15.808-.349,32.164-.714,47.008,8.332,14.9,9.088,25.294,26.291,28.526,47.191,4.859,31.449-2,61.1-19.322,83.508C1167.5,431.889,1127.769,450.264,1086.792,450.264ZM995.758,191.957a33.9,33.9,0,0,0-14.2,3.032c-21.739,9.9-33.46,43.536-30.586,87.778,4.344,66.944,36.791,149.721,113.952,162.713h0c1.387.233,2.774.44,4.17.631,46.028,6.2,93.177-12.294,120.083-47.108,16.821-21.747,23.475-50.6,18.74-81.232-3.1-20.036-12.984-36.475-27.138-45.106-14.1-8.6-29.306-8.265-45.4-7.9-9.129.208-18.582.415-27.811-1.163-12.668-2.16-23.816-6.936-32.239-13.8-5.707-4.652-10.367-10.442-14.877-16.049a140.813,140.813,0,0,0-10.276-11.837C1030.156,202.1,1011.64,191.957,995.758,191.957Z" transform="translate(170.632 195.208)"/>
    <path id="Path_210" data-name="Path 210" class="cls-3" d="M1616.71,453.127c-29.556,0-52.108-8.755-61.794-24.9-7.808-13-10.807-36.5,19.222-74.586a143.326,143.326,0,0,1,10.824-11.8c4.951-5.009,10.068-10.184,13.881-16.115,5.59-8.706,8.913-19.828,9.6-32.147.507-9.063-.748-18.283-1.96-27.2-2.135-15.675-4.344-31.89,2.974-47.648,7.343-15.833,23.259-28.1,43.669-33.676,30.685-8.382,60.93-4.909,85.153,9.769,38.518,23.35,62.774,69.121,61.794,116.6-.033,1.437-.083,2.874-.166,4.311h0c-4.278,79.861-84.148,122.292-151.241,134.362A181.837,181.837,0,0,1,1616.71,453.127Zm68.855-269.563a120.147,120.147,0,0,0-31.665,4.369c-19.562,5.341-34.78,17.021-41.75,32.056-6.953,14.977-4.9,30.046-2.725,46,1.238,9.054,2.509,18.424,1.985,27.77-.723,12.834-4.2,24.447-10.068,33.593-3.971,6.189-9.2,11.48-14.263,16.6a142.24,142.24,0,0,0-10.608,11.546c-22.935,29.09-29.506,53.72-19.006,71.214,12.294,20.484,47.033,28.326,90.668,20.484,66.03-11.879,144.612-53.462,148.8-131.6h0c.075-1.4.125-2.808.158-4.212.955-46.443-22.736-91.192-60.365-114C1721.632,188.225,1704.1,183.565,1685.565,183.565Z" transform="translate(68.687 196.631)"/>
    <ellipse id="Ellipse_7" data-name="Ellipse 7" class="cls-4" cx="334.605" cy="16.564" rx="334.605" ry="16.564" transform="translate(1168.201 857.295)"/>
    <path id="Path_364" data-name="Path 364" class="cls-5" d="M1662.623,587.232H1034.457a5.082,5.082,0,0,1-5.067-5.067V141.607a5.082,5.082,0,0,1,5.067-5.067h628.166a5.082,5.082,0,0,1,5.067,5.067V582.165A5.087,5.087,0,0,1,1662.623,587.232Z" transform="translate(156.779 204.091)"/>
    <path id="Path_365" data-name="Path 365" class="cls-6" d="M1507.689,768.963H1269.784a4.112,4.112,0,0,1-4.1-4.1V726.474a4.112,4.112,0,0,1,4.1-4.1h237.906a4.118,4.118,0,0,1,4.1,4.1v38.386A4.107,4.107,0,0,1,1507.689,768.963Z" transform="translate(116.769 104.896)"/>
    <path id="Path_366" data-name="Path 366" class="cls-7" d="M1493.615,738.4H1290.706a4.841,4.841,0,0,1-4.826-4.826h0a4.841,4.841,0,0,1,4.826-4.826h202.909a4.841,4.841,0,0,1,4.826,4.826h0A4.852,4.852,0,0,1,1493.615,738.4Z" transform="translate(113.349 103.815)"/>
    <path id="Path_367" data-name="Path 367" class="cls-7" d="M1025.781,143.286c-4.195.839-6.562.847-6.8.4v-.017c-.125-.872,5.682-4.519,17.353-8.448,11.712-3.937,18.549-4.527,18.939-3.746h0c.058.3-.606.939-1.994,1.811h1.628c.947-.764,1.437-1.52,1.238-2.1v-.008l-2.965-8.813,7.592-5.283a1.107,1.107,0,0,0-.673-2.019l-29.273,1.188a2.923,2.923,0,0,0-1.553.523l-24.048,16.738a1.107,1.107,0,0,0,.673,2.019l2.766-.116,3.281,9.769a.46.46,0,0,0,.872-.291l-3.2-9.511,5.516-.224,2.949,8.78a.075.075,0,0,0,.008.042c.4,1.188,3.364,1.063,7.077.365m29.738-13.947c-3.505-.681-13.341,2.093-18.873,3.954s-15.035,5.582-17.419,8.24l-3.073-9.146c-.723-2.16,6.679-6.521,16.854-9.943a70.377,70.377,0,0,1,13.042-3.206c3.7-.457,6.039-.108,6.4.947Zm5.349-14.072-7.376,5.134-.166-.5c-1.171-3.481-11.829-1.279-20.609,1.678s-18.607,7.626-17.436,11.114l.166.5-8.98.366a.166.166,0,0,1-.183-.125.172.172,0,0,1,.075-.208l24.048-16.738a2.01,2.01,0,0,1,1.063-.357L1060.13,116a.166.166,0,0,1,.183.125A.146.146,0,0,1,1060.254,116.322Z" transform="translate(160.952 207.728)"/>
    <path id="Path_368" data-name="Path 368" class="cls-8" d="M1058.16,528.58V168.124a2.822,2.822,0,0,1,2.824-2.824h584.863a2.822,2.822,0,0,1,2.824,2.824V528.58a2.822,2.822,0,0,1-2.824,2.824H1060.984A2.822,2.822,0,0,1,1058.16,528.58Z" transform="translate(151.907 199.221)"/>
    <path id="Path_369" data-name="Path 369" class="cls-2" d="M1558.8,214.29c-95.544-61.7-206.863-9-275.186,58.4-77.818,76.771-77.735,167.032,52.964,163.319,17.585-.5,34.905-5.723,52.6-4.5,16.422,1.13,32.454,7.667,46.476,16.672,30.735,19.753,50.754,54.351,88.176,62.085,25.984,5.366,52.565-4.585,72.46-20.867,31.4-25.693,53.163-62.359,55.107-104.051,3.007-64.66-33.576-130.366-87.454-167.614Q1561.393,215.96,1558.8,214.29Z" transform="translate(122.704 195.56)"/>
    <path id="Path_370" data-name="Path 370" class="cls-2" d="M1211.63,286.5c-29.854,12.784-57.74,14.537-65.183-2.849s9.021-45.812,38.867-58.6,61.786-5.084,69.229,12.3S1241.484,273.714,1211.63,286.5Z" transform="translate(137.26 190.18)"/>
    <circle id="Ellipse_8" data-name="Ellipse 8" class="cls-8" cx="37.555" cy="37.555" r="37.555" transform="translate(1695.049 310.46)"/>
    <path id="Path_371" data-name="Path 371" class="cls-9" d="M1472.476,465.83l-11.646,99.008h23.3Z" transform="translate(83.726 148.334)"/>
    <path id="Path_372" data-name="Path 372" class="cls-10" d="M1503.894,492.25l-11.654,77.062h23.3Z" transform="translate(78.407 143.86)"/>
    <path id="Path_373" data-name="Path 373" class="cls-7" d="M1656.382,156.626l-13.632-5.732a20.3,20.3,0,0,1-12.46-18.748V115.69h3.414v16.456a16.884,16.884,0,0,0,10.367,15.6l13.631,5.732Z" transform="translate(55.032 207.621)"/>
    <path id="Path_374" data-name="Path 374" class="cls-7" d="M1522.86,458.2l.257,105.346h8.963V458.2Z" transform="translate(73.222 149.626)"/>
    <circle id="Ellipse_9" data-name="Ellipse 9" class="cls-8" cx="13.822" cy="13.822" r="13.822" transform="translate(1491.492 746.482)"/>
    <path id="Path_375" data-name="Path 375" class="cls-9" d="M1397.31,264.529a42.618,42.618,0,0,1-25.219,38.909l-3.971-8.888a32.831,32.831,0,0,0,19.438-30.012,35.145,35.145,0,0,0-.3-4.594l9.586-1.354A43.742,43.742,0,0,1,1397.31,264.529Z" transform="translate(99.424 183.425)"/>
    <path id="Path_376" data-name="Path 376" class="cls-7" d="M1389.3,251.108l-9.586,1.354a32.881,32.881,0,0,0-50.746-22.769l-5.391-8.1a42.536,42.536,0,0,1,65.723,29.514Z" transform="translate(106.965 190.899)"/>
    <path id="Path_377" data-name="Path 377" class="cls-10" d="M1360.672,297.42a42.6,42.6,0,0,1-40.952-74.37l5.391,8.1a32.865,32.865,0,0,0,31.6,57.383Z" transform="translate(110.843 189.442)"/>
    <path id="Path_378" data-name="Path 378" class="cls-7" d="M1577.71,260.633a42.659,42.659,0,0,1-42.638,42.639c-.365,0-.764-.066-1.122-.066l.266-9.719a7.51,7.51,0,0,0,.864.033,32.893,32.893,0,0,0,26.606-52.225l7.833-5.715A42.509,42.509,0,0,1,1577.71,260.633Z" transform="translate(71.345 187.321)"/>
    <path id="Path_379" data-name="Path 379" class="cls-9" d="M1561.054,232l-7.833,5.715a32.888,32.888,0,0,0-55.73,34.6l-8.6,4.527A42.589,42.589,0,0,1,1561.054,232Z" transform="translate(79.802 190.902)"/>
    <path id="Path_380" data-name="Path 380" class="cls-10" d="M1526.747,301.715l-.266,9.719a42.6,42.6,0,0,1-36.591-22.777l8.6-4.527A32.757,32.757,0,0,0,1526.747,301.715Z" transform="translate(78.805 179.1)"/>
    <path id="Path_381" data-name="Path 381" class="cls-7" d="M1192.651,262.9a42.605,42.605,0,1,1-82.835-13.947l9.154,3.173a32.413,32.413,0,0,0-1.819,10.774,32.874,32.874,0,1,0,64.859-7.667l9.42-2.251A42.894,42.894,0,0,1,1192.651,262.9Z" transform="translate(143.563 185.057)"/>
    <path id="Path_382" data-name="Path 382" class="cls-9" d="M1184.735,231.768l-7.767,5.748a32.91,32.91,0,0,0-57.524,8.755l-9.154-3.173a42.515,42.515,0,0,1,74.445-11.33Z" transform="translate(143.08 190.9)"/>
    <path id="Path_383" data-name="Path 383" class="cls-10" d="M1205.5,250.668l-9.42,2.251a32.49,32.49,0,0,0-5.524-11.87l7.767-5.748A42.348,42.348,0,0,1,1205.5,250.668Z" transform="translate(129.489 187.368)"/>
    <path id="Path_384" data-name="Path 384" class="cls-11" d="M1502.938,369.618,1428.327,288.1a.432.432,0,0,1,.025-.606.421.421,0,0,1,.6.025l75.276,80.9a.878.878,0,0,1-.042,1.238.866.866,0,0,1-1.246-.042Z" transform="translate(89.248 178.549)"/>
    <path id="Path_385" data-name="Path 385" class="cls-12" d="M1716.148,372.113l-.665-.98-31.832-46.576c-.2-.291-.424-.581-.648-.856a11.082,11.082,0,0,0-6.637-3.78l-.017-.058-25.385-4.1-18.931,3.256a11.061,11.061,0,0,0-8.207,3.306l-43.237,44.126-55.747-5.242a3.482,3.482,0,0,0-1.2,6.836l58.7,15.359a7.165,7.165,0,0,0,6.446-1.5l.748-.648,26.872-23.209c-.889,14.188-.964,37.9,5.075,62.94h58.961s-.017-.357-.05-1.013a3.388,3.388,0,0,0,1.138,1.553,3.489,3.489,0,0,0,4.876-.748l29.605-40.321A7.238,7.238,0,0,0,1716.148,372.113Zm-35.719,45.139a3.3,3.3,0,0,0-.133.49c-.332-9.013-.922-35.354,2.1-60.075l16.572,19.837Z" transform="translate(73.532 173.744)"/>
    <path id="Path_386" data-name="Path 386" class="cls-13" d="M1522.368,371.962l-9.7-2.642-10.176,2.949,4.527,5.383,5.956.623,7.526-1.969Z" transform="translate(76.672 164.675)"/>
    <path id="Path_387" data-name="Path 387" class="cls-8" d="M1666.34,332.535l2.276,3.68,6.222.739,3.647-5.067-5.79-3.647Z" transform="translate(48.928 171.631)"/>
    <path id="Path_388" data-name="Path 388" class="cls-13" d="M1685.373,305.564c-5.1-5.25-1.329-38.892-1.329-44.018h0c.1-1.811.166-3.53.224-5.092.631-15.052-25.053-14.387-29.555.216-5.624,18.225-13.407,31.832,7.742,32.471a28.662,28.662,0,0,0,2.974-.1c.291,6.546-.349,15.251-5.3,18.366-7.767,4.884.822,7.684,14.479,6.571C1688.313,312.849,1690.739,311.088,1685.373,305.564Z" transform="translate(51.941 185.651)"/>
    <path id="Path_389" data-name="Path 389" class="cls-14" d="M1691.271,250.236a4.91,4.91,0,0,0-2.766-3.464,2.694,2.694,0,0,0,1.595-3.422l-1.819,3.074c-.4-1.254-2.9-6.189-17.427-5.69-16.647.573-16.747,16.323-14.653,14.163a12,12,0,0,0,2.143-3.6c2.251,5.541,20.783,1.47,20.783,1.47.44,5.79-.681,11.305,2.235,15.675C1686.187,270.064,1695.191,264.133,1691.271,250.236Z" transform="translate(50.803 186.454)"/>
    <path id="Path_390" data-name="Path 390" class="cls-9" d="M1715.628,570.447l.008-.017L1698.15,442.44H1639.2l-13.1,114.218a71.984,71.984,0,0,0-.15,14.711h-.033c.042.365.091.822.141,1.238.05.49.108.972.166,1.462,3.082,26.64,16.29,135.076,16.29,135.076h14.313s8.074-80.875-2.608-133.731l15.309-80.235,12.867,57.632c.208.914.473,1.811.706,2.716l-.05-.025c4.992,20.933,42.24,153.634,42.24,153.634H1739.6C1739.6,709.145,1734.6,623.037,1715.628,570.447Z" transform="translate(55.819 152.294)"/>
    <path id="Path_391" data-name="Path 391" class="cls-13" d="M1686.578,267.876c-1.62,3.9-3.5,7.293.59,7.974s6.737-3.846,6.72-7.277C1693.872,264.3,1687.883,264.761,1686.578,267.876Z" transform="translate(45.818 182.262)"/>
    <path id="Path_392" data-name="Path 392" class="cls-13" d="M1696.6,437.8l8.606-4.743,6.371,3.672,2.65,5.374-8.24-.075-9.171.5Z" transform="translate(43.804 153.883)"/>
    <path id="Path_393" data-name="Path 393" class="cls-7" d="M1640.376,763.51s-15.475,7.385-26.025,7.476l-1.321,4.943h43.262l-1.321-12.419Z" transform="translate(57.954 97.93)"/>
    <path id="Path_394" data-name="Path 394" class="cls-7" d="M1742.7,763.51s-3.206,3.9-12.892,7.476l-1.321,4.943h29.663l-1.146-12.419Z" transform="translate(38.404 97.93)"/>
    <path id="Path_395" data-name="Path 395" class="cls-8" d="M1672.74,274.266q-.262,0-.523-.025a6.9,6.9,0,0,1-5.981-7.609,7.315,7.315,0,0,1,2.492-5,6.278,6.278,0,0,1,4.577-1.5,6.916,6.916,0,0,1,5.989,7.609h0a7.314,7.314,0,0,1-2.492,5A6.293,6.293,0,0,1,1672.74,274.266Zm.042-13.3a5.388,5.388,0,0,0-3.505,1.312,6.45,6.45,0,0,0-2.193,4.419,6.059,6.059,0,0,0,5.208,6.7,5.343,5.343,0,0,0,3.954-1.3,6.45,6.45,0,0,0,2.193-4.419h0a6.059,6.059,0,0,0-5.208-6.7A4.205,4.205,0,0,0,1672.781,260.967Zm6.072,6.745h0Z" transform="translate(48.949 183.166)"/>
    <path id="Path_396" data-name="Path 396" class="cls-8" d="M1656.288,272.855q-.262,0-.523-.025a6.915,6.915,0,0,1-5.989-7.609,7.323,7.323,0,0,1,2.484-5,6.219,6.219,0,0,1,4.577-1.5,6.915,6.915,0,0,1,5.989,7.609h0a7.323,7.323,0,0,1-2.484,5A6.255,6.255,0,0,1,1656.288,272.855Zm.033-13.3a5.37,5.37,0,0,0-3.505,1.321,6.4,6.4,0,0,0-2.185,4.411,6.047,6.047,0,0,0,5.208,6.7,5.3,5.3,0,0,0,3.954-1.3,6.4,6.4,0,0,0,2.185-4.411h0a6.047,6.047,0,0,0-5.208-6.7A2.708,2.708,0,0,0,1656.321,259.556Z" transform="translate(51.736 183.406)"/>
    <path id="Path_397" data-name="Path 397" class="cls-7" d="M1673.99,325.814l4.976,8.955s14.6-6.263,16.971-16.813l-6.969-4.045C1688.975,313.9,1686.209,322.823,1673.99,325.814Z" transform="translate(47.633 174.058)"/>
    <path id="Path_398" data-name="Path 398" class="cls-7" d="M1657.806,317.422c-2.11,10.359,7.16,16.555,7.16,16.555l6.238-7.974s-7.111-3.638-6.139-10.973Z" transform="translate(50.426 173.868)"/>
    <path id="Path_399" data-name="Path 399" class="cls-8" d="M1670.168,335.54s-6.388,36.326-6.388,40.927c0,2.658,3.364,9.245,4.079,9.245,1.047,0,5.408-6.92,5.408-9.013,0-6.355-.964-36.417-.39-41.16Z" transform="translate(49.361 170.395)"/>
    <path id="Path_400" data-name="Path 400" class="cls-9" d="M1350.006,544.321H1110.6a3.175,3.175,0,0,1-3.165-3.165V347.825a3.169,3.169,0,0,1,3.165-3.165h239.4a3.169,3.169,0,0,1,3.165,3.165V541.156A3.175,3.175,0,0,1,1350.006,544.321Z" transform="translate(143.563 168.851)"/>
    <g id="Group_13" data-name="Group 13" transform="translate(1275.2 537.708)">
      <path id="Path_401" data-name="Path 401" class="cls-8" d="M1238.328,373.79h-99.823a1.937,1.937,0,0,0-1.935,1.935v36.051a1.937,1.937,0,0,0,1.935,1.935h2.7a1.937,1.937,0,0,1,1.935,1.935v5.64a1.938,1.938,0,0,0,3.182,1.487l10.309-8.622a1.943,1.943,0,0,1,1.246-.449h80.451a1.937,1.937,0,0,0,1.935-1.935V375.717A1.935,1.935,0,0,0,1238.328,373.79Z" transform="translate(-1136.57 -373.79)"/>
      <rect id="Rectangle_26" data-name="Rectangle 26" class="cls-15" width="76.613" height="4.652" transform="translate(4.835 4.843)"/>
      <rect id="Rectangle_27" data-name="Rectangle 27" class="cls-15" width="55.979" height="4.652" transform="translate(4.835 14.462)"/>
      <rect id="Rectangle_28" data-name="Rectangle 28" class="cls-15" width="68.373" height="4.652" transform="translate(4.835 24.09)"/>
    </g>
    <g id="Group_14" data-name="Group 14" transform="translate(1275.201 644.367)">
      <path id="Path_402" data-name="Path 402" class="cls-8" d="M1215.509,502.19h-77a1.937,1.937,0,0,0-1.935,1.935v36.051a1.937,1.937,0,0,0,1.935,1.935h2.7a1.937,1.937,0,0,1,1.935,1.935v5.64a1.938,1.938,0,0,0,3.181,1.487l10.309-8.622a1.943,1.943,0,0,1,1.246-.449h57.632a1.937,1.937,0,0,0,1.935-1.935V504.117A1.93,1.93,0,0,0,1215.509,502.19Z" transform="translate(-1136.57 -502.19)"/>
      <rect id="Rectangle_29" data-name="Rectangle 29" class="cls-15" width="44.375" height="4.652" transform="translate(4.834 4.835)"/>
      <rect id="Rectangle_30" data-name="Rectangle 30" class="cls-15" width="63.439" height="4.652" transform="translate(4.834 14.462)"/>
      <rect id="Rectangle_31" data-name="Rectangle 31" class="cls-15" width="30.86" height="4.652" transform="translate(4.834 24.081)"/>
      <rect id="Rectangle_32" data-name="Rectangle 32" class="cls-15" width="21.182" height="4.652" transform="translate(41.251 24.081)"/>
    </g>
    <g id="Group_15" data-name="Group 15" transform="translate(1334.021 591.038)">
      <path id="Path_403" data-name="Path 403" class="cls-16" d="M1209.315,437.99h134.171a1.937,1.937,0,0,1,1.936,1.935v36.051a1.937,1.937,0,0,1-1.936,1.935h-2.7a1.937,1.937,0,0,0-1.936,1.935v5.64a1.938,1.938,0,0,1-3.181,1.487l-10.309-8.622a1.943,1.943,0,0,0-1.246-.449h-114.8a1.937,1.937,0,0,1-1.935-1.935V439.917A1.935,1.935,0,0,1,1209.315,437.99Z" transform="translate(-1207.38 -437.99)"/>
      <rect id="Rectangle_33" data-name="Rectangle 33" class="cls-17" width="109.541" height="4.652" transform="translate(23.674 4.835)"/>
      <rect id="Rectangle_34" data-name="Rectangle 34" class="cls-17" width="89.48" height="4.652" transform="translate(43.735 14.462)"/>
      <rect id="Rectangle_35" data-name="Rectangle 35" class="cls-16" width="19.571" height="4.652" transform="translate(17.128 14.462)"/>
      <rect id="Rectangle_36" data-name="Rectangle 36" class="cls-17" width="69.561" height="4.652" transform="translate(63.646 24.09)"/>
    </g>
    <circle id="Ellipse_10" data-name="Ellipse 10" class="cls-10" cx="37.555" cy="37.555" r="37.555" transform="translate(1695.049 303.632)"/>
    <circle id="Ellipse_11" data-name="Ellipse 11" class="cls-7" cx="27.08" cy="27.08" r="27.08" transform="translate(1705.524 314.107)"/>
    <path id="Path_404" data-name="Path 404" class="cls-10" d="M1689.558,136.609a2.949,2.949,0,1,1-2.949-2.949A2.949,2.949,0,0,1,1689.558,136.609Z" transform="translate(45.995 204.578)"/>
    <path id="Path_405" data-name="Path 405" class="cls-7" d="M1631.671,121.154h0a3.389,3.389,0,0,1-3.381-3.381v-6.953a3.389,3.389,0,0,1,3.381-3.381h0a3.4,3.4,0,0,1,3.389,3.381v6.953A3.4,3.4,0,0,1,1631.671,121.154Z" transform="translate(55.371 209.018)"/>
    <path id="Path_406" data-name="Path 406" class="cls-8" d="M1681.931,269.063l4.369-1.163-.208.39-4.253,1.454Z" transform="translate(46.303 181.848)"/>
    <rect id="Rectangle_37" data-name="Rectangle 37" class="cls-8" width="0.964" height="0.44" transform="translate(1714.288 450.828)"/>
    <path id="Path_407" data-name="Path 407" class="cls-18" d="M1678.756,284.99c-7.077,5.939-13.216,3.065-13.216,3.065" transform="translate(49.063 178.954)"/>
    <path id="Path_408" data-name="Path 408" class="cls-18" d="M1670.25,260.334c5.042-1.4,10.342,1.146,10.342,1.146" transform="translate(48.266 183.201)"/>
    <path id="Path_409" data-name="Path 409" class="cls-18" d="M1653.62,261.7c2.417-2.517,4.71-1.371,4.71-1.371" transform="translate(51.082 183.175)"/>
    <ellipse id="Ellipse_12" data-name="Ellipse 12" class="cls-14" cx="1.47" cy="2.75" rx="1.47" ry="2.75" transform="translate(1721.207 448.411)"/>
    <path id="Path_410" data-name="Path 410" class="cls-14" d="M1657.279,266.3c.7,0,1.279,1.146,1.279,2.55s-.573,2.55-1.279,2.55-1.279-1.146-1.279-2.55S1656.573,266.3,1657.279,266.3Z" transform="translate(50.679 182.119)"/>
    <path id="Path_411" data-name="Path 411" class="cls-18" d="M1667.67,278.274c-1.9,1.113-3.323.158-3.638-.947s1.263-1.578,1.429-2.534a10.752,10.752,0,0,0-.158-2.683" transform="translate(49.326 181.135)"/>
  </g>
</svg>
